<mxfile host="app.diagrams.net" modified="2023-05-04T15:16:40.415Z" agent="Mozilla/5.0 (Windows NT 10.0; Win64; x64) AppleWebKit/537.36 (KHTML, like Gecko) Chrome/112.0.0.0 Safari/537.36 Edg/112.0.1722.68" etag="4-CNzhKepoVvINyudXTM" version="21.2.7" type="device">
  <diagram id="R2lEEEUBdFMjLlhIrx00" name="Page-1">
    <mxGraphModel dx="2179" dy="796" grid="1" gridSize="10" guides="1" tooltips="1" connect="1" arrows="1" fold="1" page="1" pageScale="1" pageWidth="850" pageHeight="1100" math="0" shadow="0" extFonts="Permanent Marker^https://fonts.googleapis.com/css?family=Permanent+Marker">
      <root>
        <mxCell id="0" />
        <mxCell id="1" parent="0" />
        <mxCell id="Ma5wXTWHccmWn2V-30Bm-1" value="passenger" style="swimlane;childLayout=stackLayout;horizontal=1;startSize=50;horizontalStack=0;rounded=1;fontSize=14;fontStyle=0;strokeWidth=2;resizeParent=0;resizeLast=1;shadow=0;dashed=0;align=center;arcSize=4;whiteSpace=wrap;html=1;" vertex="1" parent="1">
          <mxGeometry x="-130" y="180" width="160" height="120" as="geometry" />
        </mxCell>
        <mxCell id="Ma5wXTWHccmWn2V-30Bm-2" value="firstName&lt;br&gt;lastName&lt;br&gt;" style="align=left;strokeColor=none;fillColor=none;spacingLeft=4;fontSize=12;verticalAlign=top;resizable=0;rotatable=0;part=1;html=1;" vertex="1" parent="Ma5wXTWHccmWn2V-30Bm-1">
          <mxGeometry y="50" width="160" height="70" as="geometry" />
        </mxCell>
        <mxCell id="Ma5wXTWHccmWn2V-30Bm-3" value="flight" style="swimlane;childLayout=stackLayout;horizontal=1;startSize=50;horizontalStack=0;rounded=1;fontSize=14;fontStyle=0;strokeWidth=2;resizeParent=0;resizeLast=1;shadow=0;dashed=0;align=center;arcSize=4;whiteSpace=wrap;html=1;" vertex="1" parent="1">
          <mxGeometry x="310" y="160" width="160" height="150" as="geometry" />
        </mxCell>
        <mxCell id="Ma5wXTWHccmWn2V-30Bm-4" value="ticketNu&lt;br&gt;departure DateTime&lt;br&gt;arrivalDateTime&lt;br&gt;Duration&lt;br&gt;Distance&lt;br&gt;Airline" style="align=left;strokeColor=none;fillColor=none;spacingLeft=4;fontSize=12;verticalAlign=top;resizable=0;rotatable=0;part=1;html=1;" vertex="1" parent="Ma5wXTWHccmWn2V-30Bm-3">
          <mxGeometry y="50" width="160" height="100" as="geometry" />
        </mxCell>
        <mxCell id="Ma5wXTWHccmWn2V-30Bm-5" value="airport" style="swimlane;childLayout=stackLayout;horizontal=1;startSize=50;horizontalStack=0;rounded=1;fontSize=14;fontStyle=0;strokeWidth=2;resizeParent=0;resizeLast=1;shadow=0;dashed=0;align=center;arcSize=4;whiteSpace=wrap;html=1;" vertex="1" parent="1">
          <mxGeometry x="280" y="410" width="160" height="120" as="geometry" />
        </mxCell>
        <mxCell id="Ma5wXTWHccmWn2V-30Bm-6" value="IATACode&lt;br&gt;Name&lt;br&gt;City&lt;br&gt;State" style="align=left;strokeColor=none;fillColor=none;spacingLeft=4;fontSize=12;verticalAlign=top;resizable=0;rotatable=0;part=1;html=1;" vertex="1" parent="Ma5wXTWHccmWn2V-30Bm-5">
          <mxGeometry y="50" width="160" height="70" as="geometry" />
        </mxCell>
        <mxCell id="Ma5wXTWHccmWn2V-30Bm-7" value="" style="edgeStyle=entityRelationEdgeStyle;fontSize=12;html=1;endArrow=ERmany;startArrow=ERmany;rounded=0;exitX=1;exitY=0.25;exitDx=0;exitDy=0;entryX=0;entryY=0.5;entryDx=0;entryDy=0;" edge="1" parent="1" source="Ma5wXTWHccmWn2V-30Bm-2" target="Ma5wXTWHccmWn2V-30Bm-26">
          <mxGeometry width="100" height="100" relative="1" as="geometry">
            <mxPoint x="370" y="460" as="sourcePoint" />
            <mxPoint x="470" y="360" as="targetPoint" />
          </mxGeometry>
        </mxCell>
        <mxCell id="Ma5wXTWHccmWn2V-30Bm-21" value="purchases" style="edgeLabel;html=1;align=center;verticalAlign=middle;resizable=0;points=[];" vertex="1" connectable="0" parent="Ma5wXTWHccmWn2V-30Bm-7">
          <mxGeometry x="0.1148" relative="1" as="geometry">
            <mxPoint y="1" as="offset" />
          </mxGeometry>
        </mxCell>
        <mxCell id="Ma5wXTWHccmWn2V-30Bm-23" value="" style="edgeStyle=entityRelationEdgeStyle;fontSize=12;html=1;endArrow=ERmany;startArrow=ERmany;rounded=0;exitX=1;exitY=0.25;exitDx=0;exitDy=0;" edge="1" parent="1" source="Ma5wXTWHccmWn2V-30Bm-6" target="Ma5wXTWHccmWn2V-30Bm-4">
          <mxGeometry width="100" height="100" relative="1" as="geometry">
            <mxPoint x="370" y="440" as="sourcePoint" />
            <mxPoint x="530" y="340" as="targetPoint" />
          </mxGeometry>
        </mxCell>
        <mxCell id="Ma5wXTWHccmWn2V-30Bm-24" value="Departs/arrive at" style="edgeLabel;html=1;align=center;verticalAlign=middle;resizable=0;points=[];" vertex="1" connectable="0" parent="Ma5wXTWHccmWn2V-30Bm-23">
          <mxGeometry x="0.0198" relative="1" as="geometry">
            <mxPoint as="offset" />
          </mxGeometry>
        </mxCell>
        <mxCell id="Ma5wXTWHccmWn2V-30Bm-25" value="Ticket" style="swimlane;childLayout=stackLayout;horizontal=1;startSize=50;horizontalStack=0;rounded=1;fontSize=14;fontStyle=0;strokeWidth=2;resizeParent=0;resizeLast=1;shadow=0;dashed=0;align=center;arcSize=4;whiteSpace=wrap;html=1;" vertex="1" parent="1">
          <mxGeometry x="90" y="40" width="160" height="120" as="geometry" />
        </mxCell>
        <mxCell id="Ma5wXTWHccmWn2V-30Bm-26" value="ticketNumber&lt;br&gt;price&lt;br&gt;flightClass&lt;br&gt;confirmationNumber" style="align=left;strokeColor=none;fillColor=none;spacingLeft=4;fontSize=12;verticalAlign=top;resizable=0;rotatable=0;part=1;html=1;" vertex="1" parent="Ma5wXTWHccmWn2V-30Bm-25">
          <mxGeometry y="50" width="160" height="70" as="geometry" />
        </mxCell>
        <mxCell id="Ma5wXTWHccmWn2V-30Bm-28" value="" style="edgeStyle=entityRelationEdgeStyle;fontSize=12;html=1;endArrow=ERmany;startArrow=ERmany;rounded=0;exitX=0.006;exitY=0.42;exitDx=0;exitDy=0;exitPerimeter=0;" edge="1" parent="1" source="Ma5wXTWHccmWn2V-30Bm-4" target="Ma5wXTWHccmWn2V-30Bm-26">
          <mxGeometry width="100" height="100" relative="1" as="geometry">
            <mxPoint x="100" y="383" as="sourcePoint" />
            <mxPoint x="160" y="260" as="targetPoint" />
          </mxGeometry>
        </mxCell>
        <mxCell id="Ma5wXTWHccmWn2V-30Bm-29" value="issued for" style="edgeLabel;html=1;align=center;verticalAlign=middle;resizable=0;points=[];" vertex="1" connectable="0" parent="Ma5wXTWHccmWn2V-30Bm-28">
          <mxGeometry x="0.1148" relative="1" as="geometry">
            <mxPoint y="1" as="offset" />
          </mxGeometry>
        </mxCell>
      </root>
    </mxGraphModel>
  </diagram>
</mxfile>
